# xmcd
#
# Track frame offsets: 
#        150
#        14894
#        31979
#        45219
#        65808
#        86257
#        112112
#        125672
#        140744
#        158811
#        175645
#
# Disc length: 2571 seconds
#
# Revision: 0
# Processed by: cddbd v1.5.2PL0 Copyright (c) Steve Scherf et al.
# Submitted via: ExactAudioCopy v1.3
#
DISCID=950a090b
DTITLE=Dennis Jones - Pleasure and Pain
DYEAR=2009
DGENRE=Blues Rock
TTITLE0=Brand New Day
TTITLE1=Don't Worry About Me
TTITLE2=I'm Good
TTITLE3=Kill The Pain
TTITLE4=Blue Over You
TTITLE5=Sunday Morning Rain
TTITLE6=Home Tonight
TTITLE7=Try Not To Lie
TTITLE8=I Want It Yesterday
TTITLE9=Him Or Me
TTITLE10=Hot Sauce
EXTD=
EXTT0=
EXTT1=
EXTT2=
EXTT3=
EXTT4=
EXTT5=
EXTT6=
EXTT7=
EXTT8=
EXTT9=
EXTT10=
PLAYORDER=
